<?xml version="1.0" standalone="no"?>
<!DOCTYPE svg PUBLIC "-//W3C//DTD SVG 20010904//EN"
 "http://www.w3.org/TR/2001/REC-SVG-20010904/DTD/svg10.dtd">
<svg version="1.0" xmlns="http://www.w3.org/2000/svg"
 width="489.000000pt" height="489.000000pt" viewBox="0 0 489.000000 489.000000"
 preserveAspectRatio="xMidYMid meet">
<metadata>
Created by potrace 1.14, written by Peter Selinger 2001-2017
</metadata>
<g transform="translate(0.000000,489.000000) scale(0.100000,-0.100000)"
fill="#000000" stroke="none">
<path d="M4408 3285 c-2 -2 -32 -6 -68 -9 -36 -3 -81 -8 -100 -11 -19 -3 -53
-7 -75 -10 -22 -3 -50 -7 -62 -9 -12 -3 -49 -7 -82 -11 -33 -3 -68 -7 -78 -9
-10 -2 -40 -7 -68 -10 -27 -4 -63 -9 -80 -11 -16 -2 -52 -7 -80 -10 -129 -16
-189 -24 -307 -40 -91 -13 -116 -16 -158 -20 -25 -2 -57 -6 -70 -9 -14 -3 -45
-8 -70 -11 -25 -3 -61 -8 -80 -11 -46 -6 -198 -25 -230 -29 -113 -13 -181 -25
-193 -32 -6 -3 -7 -1 -3 5 5 9 1 9 -17 3 -21 -8 -49 -12 -174 -26 -33 -4 -93
-12 -153 -22 -19 -3 -51 -7 -70 -9 -19 -1 -51 -6 -70 -9 -19 -3 -55 -7 -80
-10 -25 -2 -58 -6 -75 -9 -45 -7 -117 -18 -145 -21 -58 -6 -137 -16 -160 -20
-14 -3 -45 -7 -70 -9 -25 -3 -58 -7 -75 -10 -26 -4 -65 -9 -155 -21 -14 -2
-45 -6 -70 -9 -25 -2 -61 -7 -80 -10 -19 -3 -56 -8 -82 -10 -26 -3 -58 -8 -70
-10 -13 -3 -48 -8 -79 -11 -31 -3 -66 -7 -77 -10 -12 -2 -45 -6 -74 -9 -29 -4
-62 -8 -74 -10 -11 -2 -54 -7 -95 -11 -40 -4 -76 -8 -79 -10 -6 -3 -81 -14
-150 -21 -25 -3 -58 -7 -75 -11 -16 -3 -38 -5 -49 -5 -17 1 -18 -5 -11 -71 10
-102 15 -139 29 -244 4 -24 8 -60 11 -80 2 -21 7 -60 11 -88 3 -27 7 -59 9
-70 2 -11 6 -42 9 -70 3 -27 9 -67 12 -88 10 -62 13 -90 19 -142 2 -27 7 -61
10 -75 3 -14 7 -47 10 -75 3 -27 9 -68 13 -90 l7 -40 55 1 c49 1 92 5 195 20
34 5 63 9 150 19 33 3 74 9 90 12 17 2 48 6 70 9 22 2 56 6 75 9 19 3 53 8 75
10 22 3 56 7 76 10 20 3 54 7 75 10 21 2 53 6 69 9 17 2 55 8 85 11 30 4 63 9
72 10 9 2 41 6 70 9 68 8 109 16 121 23 6 3 7 1 3 -5 -5 -9 -1 -9 17 -3 20 8
58 14 167 26 29 3 128 16 150 20 8 1 42 6 75 10 32 4 68 9 80 12 11 2 47 6 80
8 33 2 67 6 75 9 8 3 40 8 70 11 30 4 69 8 85 11 17 2 50 6 75 9 25 3 56 7 70
9 14 2 50 7 80 10 30 4 66 9 80 11 22 4 66 10 150 20 14 1 43 5 65 9 22 3 60
9 85 12 80 11 145 22 170 29 8 2 38 7 65 11 28 3 57 8 65 9 8 2 51 11 95 20
83 18 369 91 395 102 8 3 23 8 33 10 36 6 194 63 342 121 254 101 304 129 306
175 4 64 -1 146 -15 237 -3 19 -8 53 -10 75 -3 22 -8 65 -12 95 -4 30 -7 65
-8 78 0 12 -2 22 -5 22 -4 0 -7 17 -8 38 -4 53 -11 127 -13 127 -1 0 -3 11 -5
25 -7 77 -17 145 -21 152 -4 6 -79 9 -86 3z"/>
</g>
</svg>
